<svg width="12" height="13" viewBox="0 0 12 13" fill="none" xmlns="http://www.w3.org/2000/svg">
<g clip-path="url(#clip0_602_8093)">
<path d="M12 6.4834C12 3.16972 9.31368 0.483398 6 0.483398C2.68632 0.483398 0 3.16972 0 6.4834C0 9.29716 1.93728 11.6583 4.55064 12.3068V8.317H3.31344V6.4834H4.55064V5.69332C4.55064 3.65116 5.47488 2.7046 7.47984 2.7046C7.86 2.7046 8.51592 2.77924 8.78424 2.85364V4.51564C8.64264 4.50076 8.39664 4.49332 8.09112 4.49332C7.10736 4.49332 6.7272 4.86604 6.7272 5.83492V6.4834H8.68704L8.35032 8.317H6.7272V12.4395C9.69816 12.0807 12.0002 9.55108 12.0002 6.4834H12Z" fill="#0866FF"/>
<path d="M8.35011 8.31699L8.68683 6.48339H6.72699V5.83491C6.72699 4.86603 7.10715 4.49331 8.09091 4.49331C8.39643 4.49331 8.64243 4.50075 8.78403 4.51563V2.85363C8.51571 2.77899 7.85979 2.70459 7.47963 2.70459C5.47467 2.70459 4.55043 3.65115 4.55043 5.69331V6.48339H3.31323V8.31699H4.55043V12.3068C5.01459 12.422 5.50011 12.4834 5.99979 12.4834C6.24579 12.4834 6.48843 12.4683 6.72675 12.4395V8.31699H8.34987H8.35011Z" fill="white"/>
</g>
<defs>
<clipPath id="clip0_602_8093">
<rect width="12" height="12" fill="white" transform="translate(0 0.483398)"/>
</clipPath>
</defs>
</svg>
