<svg width="12" height="13" viewBox="0 0 12 13" fill="none" xmlns="http://www.w3.org/2000/svg">
<g clip-path="url(#clip0_602_8093)">
<path d="M5.99988 5.39258V7.71622H9.22896C9.08717 8.46349 8.66166 9.09624 8.02349 9.52169L9.97075 11.0326C11.1053 9.98537 11.7598 8.44718 11.7598 6.61991C11.7598 6.19446 11.7217 5.78533 11.6507 5.39264L5.99988 5.39258Z" fill="#4285F4"/>
<path d="M2.63731 7.62549L2.19813 7.96168L0.643555 9.17257C1.63082 11.1307 3.65431 12.4835 5.99975 12.4835C7.61971 12.4835 8.97787 11.9489 9.97062 11.0326L8.02336 9.52167C7.48881 9.88166 6.80699 10.0999 5.99975 10.0999C4.43976 10.0999 3.11434 9.04715 2.63976 7.62895L2.63731 7.62549Z" fill="#34A853"/>
<path d="M0.64359 3.79443C0.234521 4.60167 0 5.51259 0 6.48349C0 7.45438 0.234521 8.3653 0.64359 9.17254C0.64359 9.17796 2.63999 7.62345 2.63999 7.62345C2.51999 7.26345 2.44906 6.88166 2.44906 6.48343C2.44906 6.08519 2.51999 5.7034 2.63999 5.3434L0.64359 3.79443Z" fill="#FBBC05"/>
<path d="M5.99987 2.87249C6.88352 2.87249 7.66896 3.17793 8.29623 3.76703L10.0144 2.04887C8.97258 1.07798 7.61989 0.483398 5.99987 0.483398C3.65443 0.483398 1.63082 1.83067 0.643555 3.79431L2.63989 5.3434C3.11441 3.92521 4.43988 2.87249 5.99987 2.87249Z" fill="#EA4335"/>
</g>
<defs>
<clipPath id="clip0_602_8093">
<rect width="12" height="12" fill="white" transform="translate(0 0.483398)"/>
</clipPath>
</defs>
</svg>
