<svg width="24" height="25" viewBox="0 0 24 25" fill="none" xmlns="http://www.w3.org/2000/svg">
<rect y="0.5" width="24" height="24" rx="6" fill="#F8F8F8"/>
<path d="M7.64003 16.8267V14.88C7.64003 14.2333 8.1467 13.6533 8.8667 13.6533C9.51337 13.6533 10.0934 14.16 10.0934 14.88V16.7533C10.0934 18.0533 9.01337 19.1333 7.71337 19.1333C6.41337 19.1333 5.33336 18.0467 5.33336 16.7533V12.6467C5.26003 8.9 8.22003 5.86667 11.9667 5.86667C15.7134 5.86667 18.6667 8.9 18.6667 12.5733V16.68C18.6667 17.98 17.5867 19.06 16.2867 19.06C14.9867 19.06 13.9067 17.98 13.9067 16.68V14.8067C13.9067 14.16 14.4134 13.58 15.1334 13.58C15.78 13.58 16.36 14.0867 16.36 14.8067V16.8267" stroke="#3A7AFE" stroke-linecap="round" stroke-linejoin="round"/>
<rect x="12" y="3.5" width="6" height="6" rx="3" fill="#FF2D55"/>
</svg>
